<svg width="12" height="12" viewBox="0 0 12 12" fill="none" xmlns="http://www.w3.org/2000/svg">
<mask id="mask0_10_80" style="mask-type:alpha" maskUnits="userSpaceOnUse" x="0" y="0" width="12" height="12">
<rect width="12" height="12" fill="#D9D9D9"/>
</mask>
<g mask="url(#mask0_10_80)">
<path d="M6.00005 11C5.37505 11 4.78972 10.8813 4.24405 10.644C3.69805 10.4063 3.22305 10.0853 2.81905 9.681C2.41472 9.277 2.09372 8.802 1.85605 8.256C1.61872 7.71034 1.50005 7.125 1.50005 6.5C1.50005 5.875 1.61872 5.2895 1.85605 4.7435C2.09372 4.19784 2.41472 3.72284 2.81905 3.3185C3.22305 2.9145 3.69805 2.59384 4.24405 2.3565C4.78972 2.11884 5.37505 2 6.00005 2C6.62505 2 7.21055 2.11884 7.75655 2.3565C8.30222 2.59384 8.77722 2.9145 9.18155 3.3185C9.58555 3.72284 9.90638 4.19784 10.144 4.7435C10.3814 5.2895 10.5 5.875 10.5 6.5C10.5 7.125 10.3814 7.71034 10.144 8.256C9.90638 8.802 9.58555 9.277 9.18155 9.681C8.77722 10.0853 8.30222 10.4063 7.75655 10.644C7.21055 10.8813 6.62505 11 6.00005 11ZM7.40005 8.6L8.10005 7.9L6.50005 6.3V4H5.50005V6.7L7.40005 8.6ZM2.80005 1.175L3.50005 1.875L1.37505 4L0.675049 3.3L2.80005 1.175ZM9.20005 1.175L11.325 3.3L10.625 4L8.50005 1.875L9.20005 1.175ZM6.00005 10C6.97505 10 7.80205 9.66034 8.48105 8.981C9.16038 8.302 9.50005 7.475 9.50005 6.5C9.50005 5.525 9.16038 4.69784 8.48105 4.0185C7.80205 3.3395 6.97505 3 6.00005 3C5.02505 3 4.19805 3.3395 3.51905 4.0185C2.83972 4.69784 2.50005 5.525 2.50005 6.5C2.50005 7.475 2.83972 8.302 3.51905 8.981C4.19805 9.66034 5.02505 10 6.00005 10Z" fill="#F2A922"/>
</g>
</svg>
