<svg width="12" height="12" viewBox="0 0 12 12" fill="none" xmlns="http://www.w3.org/2000/svg">
<mask id="mask0_10_85" style="mask-type:alpha" maskUnits="userSpaceOnUse" x="0" y="0" width="12" height="12">
<rect width="12" height="12" fill="#D9D9D9"/>
</mask>
<g mask="url(#mask0_10_85)">
<path d="M2.5 11C2.225 11 1.9895 10.9022 1.7935 10.7065C1.59783 10.5105 1.5 10.275 1.5 10V3C1.5 2.725 1.59783 2.48967 1.7935 2.294C1.9895 2.098 2.225 2 2.5 2H3V1H4V2H8V1H9V2H9.5C9.775 2 10.0105 2.098 10.2065 2.294C10.4022 2.48967 10.5 2.725 10.5 3V10C10.5 10.275 10.4022 10.5105 10.2065 10.7065C10.0105 10.9022 9.775 11 9.5 11H2.5ZM2.5 10H9.5V5H2.5V10ZM2.5 4H9.5V3H2.5V4ZM6 7C5.85833 7 5.73967 6.952 5.644 6.856C5.548 6.76033 5.5 6.64167 5.5 6.5C5.5 6.35833 5.548 6.2395 5.644 6.1435C5.73967 6.04783 5.85833 6 6 6C6.14167 6 6.2605 6.04783 6.3565 6.1435C6.45217 6.2395 6.5 6.35833 6.5 6.5C6.5 6.64167 6.45217 6.76033 6.3565 6.856C6.2605 6.952 6.14167 7 6 7ZM4 7C3.85833 7 3.7395 6.952 3.6435 6.856C3.54783 6.76033 3.5 6.64167 3.5 6.5C3.5 6.35833 3.54783 6.2395 3.6435 6.1435C3.7395 6.04783 3.85833 6 4 6C4.14167 6 4.2605 6.04783 4.3565 6.1435C4.45217 6.2395 4.5 6.35833 4.5 6.5C4.5 6.64167 4.45217 6.76033 4.3565 6.856C4.2605 6.952 4.14167 7 4 7ZM8 7C7.85833 7 7.73967 6.952 7.644 6.856C7.548 6.76033 7.5 6.64167 7.5 6.5C7.5 6.35833 7.548 6.2395 7.644 6.1435C7.73967 6.04783 7.85833 6 8 6C8.14167 6 8.26033 6.04783 8.356 6.1435C8.452 6.2395 8.5 6.35833 8.5 6.5C8.5 6.64167 8.452 6.76033 8.356 6.856C8.26033 6.952 8.14167 7 8 7ZM6 9C5.85833 9 5.73967 8.952 5.644 8.856C5.548 8.76033 5.5 8.64167 5.5 8.5C5.5 8.35833 5.548 8.23967 5.644 8.144C5.73967 8.048 5.85833 8 6 8C6.14167 8 6.2605 8.048 6.3565 8.144C6.45217 8.23967 6.5 8.35833 6.5 8.5C6.5 8.64167 6.45217 8.76033 6.3565 8.856C6.2605 8.952 6.14167 9 6 9ZM4 9C3.85833 9 3.7395 8.952 3.6435 8.856C3.54783 8.76033 3.5 8.64167 3.5 8.5C3.5 8.35833 3.54783 8.23967 3.6435 8.144C3.7395 8.048 3.85833 8 4 8C4.14167 8 4.2605 8.048 4.3565 8.144C4.45217 8.23967 4.5 8.35833 4.5 8.5C4.5 8.64167 4.45217 8.76033 4.3565 8.856C4.2605 8.952 4.14167 9 4 9ZM8 9C7.85833 9 7.73967 8.952 7.644 8.856C7.548 8.76033 7.5 8.64167 7.5 8.5C7.5 8.35833 7.548 8.23967 7.644 8.144C7.73967 8.048 7.85833 8 8 8C8.14167 8 8.26033 8.048 8.356 8.144C8.452 8.23967 8.5 8.35833 8.5 8.5C8.5 8.64167 8.452 8.76033 8.356 8.856C8.26033 8.952 8.14167 9 8 9Z" fill="#F2A922"/>
</g>
</svg>
